<svg width="19" height="20" viewBox="0 0 19 20" fill="none" xmlns="http://www.w3.org/2000/svg">
<g id="Froska footstep" clip-path="url(#clip0_177_32)">
<path id="Vector" d="M7.73676 14.2733C7.75898 13.1009 7.91881 11.8364 8.4077 10.6275C8.84103 9.56048 9.63248 8.91818 10.7581 8.79982C12.8864 8.56196 15.0334 9.02727 16.8821 10.1271C17.5812 10.5379 18.1855 11.0679 18.5915 11.7929C18.9974 12.5178 19.1137 13.2724 18.8718 14.0705C18.783 14.3812 18.6215 14.6654 18.4012 14.8987C18.1809 15.132 17.9083 15.3074 17.6068 15.4099C17.1575 15.5773 16.6959 15.7089 16.2265 15.8033C15.0299 16.0452 14.165 16.705 13.6333 17.8259C13.4836 18.1403 13.3173 18.4463 13.135 18.7424C12.2624 20.1714 10.6709 20.4134 9.41026 19.3116C8.65812 18.6536 8.27607 17.7781 8.02223 16.8303C7.81197 16.0322 7.73846 15.2167 7.73676 14.2733Z" fill="white"/>
<path id="Vector_2" d="M6.06154 10.6588C4.98291 10.6179 4.11026 10.2384 3.31111 9.67446C2.16325 8.86593 1.29829 7.82242 0.922224 6.4299C0.830085 6.07755 0.814336 5.709 0.87607 5.34983C1.07009 4.25671 1.92564 3.72407 2.9718 4.03216C4.26581 4.41337 5.31966 5.18621 6.2 6.20797C6.8077 6.89064 7.26726 7.69608 7.54872 8.57176C7.60976 8.77347 7.64762 8.98171 7.66154 9.1923C7.69142 9.50689 7.60651 9.82167 7.42301 10.0766C7.23952 10.3315 6.97028 10.5087 6.66667 10.5744C6.46659 10.6135 6.26459 10.6417 6.06154 10.6588Z" fill="white"/>
<path id="Vector_3" d="M11.5145 5.26029C11.5103 6.00006 11.4291 6.52574 11.1795 7.01312C10.8376 7.67804 10.1923 7.93218 9.50172 7.6676C8.90343 7.4387 8.4342 7.02269 7.9983 6.56664C6.85049 5.39379 6.12142 3.86334 5.92736 2.21938C5.89189 1.94525 5.89189 1.66757 5.92736 1.39345C6.05813 0.445665 6.85984 -0.122655 7.82565 0.0226886C8.31774 0.100093 8.77952 0.313531 9.1607 0.639747C10.6564 1.88344 11.4145 3.50398 11.5145 5.26029Z" fill="white"/>
<path id="Vector_4" d="M12.0513 3.15928C12.0983 2.78156 12.1111 2.39514 12.1974 2.02787C12.4538 0.932131 13.4265 0.476952 14.4196 0.98348C14.6794 1.10873 14.9134 1.28297 15.1094 1.49697C16.4769 3.08966 16.9137 4.91821 16.3427 6.96085C16.2461 7.30898 16.0265 7.63622 15.8017 7.91821C15.6321 8.13997 15.386 8.28781 15.1134 8.33176C14.8408 8.37572 14.5619 8.31251 14.3333 8.15493C14.033 7.95566 13.7654 7.70955 13.5402 7.4256C12.5701 6.18539 12.1017 4.75197 12.0513 3.15928Z" fill="white"/>
<path id="Vector_5" d="M4.93245 15.6823C3.08373 15.5648 1.58031 14.7771 0.47946 13.2454C0.0948442 12.7101 -0.104301 12.107 0.0521091 11.4308C0.216212 10.7345 0.698263 10.3289 1.40083 10.2993C2.20083 10.268 2.94869 10.5004 3.6692 10.8215C4.81534 11.3174 5.79693 12.1389 6.49655 13.1879C6.65591 13.4293 6.77946 13.6932 6.86322 13.9712C7.04185 14.5674 6.76835 15.1401 6.21279 15.4055C5.81188 15.5946 5.37424 15.6892 4.93245 15.6823Z" fill="white"/>
</g>
<defs>
<clipPath id="clip0_177_32">
<rect width="19" height="20" fill="white"/>
</clipPath>
</defs>
</svg>
