<svg width="111" height="29" viewBox="0 0 111 29" fill="none" xmlns="http://www.w3.org/2000/svg">
<g clip-path="url(#clip0_102_94)">
<path d="M12.261 4.96438C9.43873 4.75466 8.0276 5.88517 8.0276 8.3559V8.55743H12.261V13.4727H8.0276V28.4396H2.87652V13.4825H0V8.56726H2.87652V8.3559C2.87652 5.54437 3.66102 3.41443 5.23003 1.96607C6.79904 0.517708 9.14269 -0.127829 12.261 0.0294594V4.96438Z" fill="white"/>
<path d="M20.0518 11.9686C20.4749 10.7622 21.3165 9.74599 22.425 9.103C23.5498 8.46322 24.8255 8.13404 26.1206 8.14944V13.8757C24.6457 13.672 23.1469 14.013 21.907 14.8342C20.6702 15.6567 20.0518 17.0231 20.0518 18.9335V28.4396H14.8958V8.54758H20.0518V11.9686Z" fill="white"/>
<path d="M56.9579 14.1953C56.9579 14.7261 57.3083 15.1783 58.0138 15.488C58.8413 15.8633 59.704 16.1564 60.5894 16.3629C61.6206 16.6321 62.6354 16.9603 63.6287 17.3459C64.6494 17.7388 65.5409 18.4057 66.2042 19.2727C66.9226 20.2354 67.2946 21.4111 67.2601 22.6102C67.3049 23.5252 67.1182 24.4367 66.7174 25.2611C66.3165 26.0856 65.7142 26.7966 64.9658 27.3288C63.2832 28.4822 61.2738 29.0679 59.2325 29C55.1307 29 52.3348 27.4206 50.8447 24.2617L55.3199 21.7549C55.9021 23.4818 57.2063 24.3453 59.2325 24.3453C61.068 24.3453 61.9906 23.7751 61.9906 22.6298C61.9906 22.1039 61.6354 21.6714 60.9298 21.3371C60.0997 20.9633 59.2378 20.6639 58.3543 20.4425C57.3241 20.175 56.3109 19.8467 55.3199 19.4595C54.3102 19.0636 53.4222 18.4112 52.7443 17.5671C52.0174 16.6463 51.6416 15.4987 51.6835 14.328C51.6471 13.4376 51.8257 12.5514 52.2043 11.744C52.5829 10.9366 53.1505 10.2315 53.8594 9.68797C55.4217 8.52366 57.3369 7.92699 59.2868 7.99712C60.8366 7.97909 62.3653 8.35643 63.7274 9.09323C65.0537 9.81751 66.1469 10.9014 66.8802 12.2193L62.4889 14.6032C62.2306 13.9781 61.7849 13.4477 61.2127 13.0844C60.6404 12.7211 59.9696 12.5426 59.2917 12.5732C58.7079 12.5529 58.1311 12.7051 57.6339 13.0107C57.4274 13.1323 57.2564 13.3056 57.1378 13.5134C57.0192 13.7212 56.9572 13.9563 56.9579 14.1953Z" fill="white"/>
<path d="M105.844 8.54767H111.015V28.4397H105.844V26.0951C104.301 28.0317 102.132 29 99.3361 29C98.0421 29.01 96.7611 28.7431 95.5796 28.2174C94.3982 27.6916 93.3437 26.9193 92.4877 25.9526C90.5873 23.9386 89.5608 21.2593 89.6309 18.4961C89.5616 15.7316 90.5879 13.0511 92.4877 11.0348C93.3437 10.0681 94.3982 9.29577 95.5796 8.77002C96.7611 8.24427 98.0421 7.97736 99.3361 7.98733C102.129 7.98733 104.298 8.95563 105.844 10.8922V8.54767ZM96.3412 22.5316C96.855 23.0503 97.4708 23.4577 98.15 23.7284C98.8292 23.999 99.5572 24.1271 100.288 24.1045C101.024 24.1244 101.755 23.9953 102.439 23.7249C103.123 23.4545 103.744 23.0485 104.265 22.5316C104.79 22.0012 105.2 21.3696 105.47 20.6757C105.741 19.9818 105.866 19.2401 105.839 18.4961C105.867 17.7514 105.742 17.0087 105.471 16.3139C105.201 15.6191 104.79 14.9868 104.265 14.4558C103.744 13.9389 103.123 13.5329 102.439 13.2625C101.755 12.9921 101.024 12.863 100.288 12.8829C99.5572 12.8603 98.8292 12.9884 98.15 13.259C97.4708 13.5297 96.855 13.9371 96.3412 14.4558C95.8202 14.989 95.4134 15.6221 95.1454 16.3166C94.8774 17.0111 94.7538 17.7526 94.782 18.4961C94.7542 19.2389 94.878 19.9795 95.146 20.6732C95.414 21.3669 95.8206 21.9991 96.3412 22.5316Z" fill="white"/>
<path d="M45.7085 11.0938L45.6789 4.91528L40.1233 8.15935C38.8175 7.93116 37.4818 7.93116 36.1761 8.15935L30.5908 4.91528V11.0987C29.6194 12.0632 28.8541 13.2138 28.3411 14.4809C27.8281 15.748 27.5779 17.1055 27.6057 18.4716C27.5879 19.8566 27.8481 21.2312 28.3711 22.5147C28.894 23.7981 29.6692 24.9646 30.651 25.9454C31.6328 26.9262 32.8015 27.7017 34.0883 28.2263C35.3752 28.7508 36.7544 29.0139 38.1447 29C39.5386 29.0271 40.9234 28.7709 42.2146 28.2469C43.5057 27.7229 44.6761 26.9423 45.6543 25.9526C46.6528 24.9863 47.441 23.8257 47.9698 22.5429C48.4986 21.2601 48.7567 19.8826 48.7281 18.4961C48.756 17.1226 48.5027 15.7579 47.9835 14.4852C47.4643 13.2125 46.6903 12.0585 45.7085 11.0938ZM42.0179 22.4333C41.5135 22.9425 40.9094 23.3432 40.2432 23.6104C39.5769 23.8775 38.8627 24.0055 38.1447 23.9865C37.4295 24.007 36.7178 23.8795 36.0546 23.6122C35.3913 23.3448 34.7909 22.9434 34.2913 22.4333C33.7813 21.9155 33.3819 21.3001 33.1173 20.6242C32.8527 19.9484 32.7284 19.2261 32.7519 18.501C32.7307 17.7763 32.8561 17.0547 33.1205 16.3791C33.385 15.7036 33.7831 15.088 34.2913 14.5688C34.7917 14.0596 35.3922 13.6588 36.0553 13.3916C36.7184 13.1243 37.4297 12.9963 38.1447 13.0156C38.8625 12.9977 39.5764 13.1263 40.2425 13.3934C40.9086 13.6605 41.5128 14.0605 42.0179 14.5688C42.5319 15.0846 42.9353 15.6993 43.2033 16.3753C43.4713 17.0513 43.5985 17.7745 43.5771 18.501C43.5994 19.2277 43.4726 19.9512 43.2045 20.6273C42.9364 21.3034 42.5327 21.918 42.0179 22.4333Z" fill="white"/>
<path d="M89.0289 8.54761H82.8812L76.0081 17.3361V8.54761H70.8571V28.4396H76.0081V19.4005L83.2808 28.4396H89.2707L81.0013 18.3732L89.0289 8.54761Z" fill="white"/>
</g>
<defs>
<clipPath id="clip0_102_94">
<rect width="111" height="29" fill="white"/>
</clipPath>
</defs>
</svg>
